# xmcd CD database file
#
# Track frame offsets:
#	150
#	10396
#	21770
#	36503
#	49687
#	60388
#	75192
#	86726
#	98156
#	109296
#	122906
#	132680
#	146354
#	155073
#	179083
#	211679
#	239692
#	259829
#	289829
#	314048
#
# Disc length: 4560 seconds
#
# Revision: 0
# Processed by: cddbd v1.5.2PL0 Copyright (c) Steve Scherf et al.
# Submitted via: CDex 1.77
#
DISCID=2a11ce14
DTITLE=Jack Teagarden - Jack Teagarden
DYEAR=1962
DGENRE=Jazz
TTITLE0=When Johnny comes marching home
TTITLE1=Moon river
TTITLE2=All the way
TTITLE3=Gigi
TTITLE4=The last time i saw Paris
TTITLE5=Learnin' the Blues
TTITLE6=Dame Blanche
TTITLE7=Never on sunday
TTITLE8=Time after time
TTITLE9=Secret love
TTITLE10=The Atchinson Topeka ant the Santa Fe
TTITLE11=High Hopes
TTITLE12=Announcement by Louis Lorillard
TTITLE13=That's a plenty
TTITLE14=Stars feel on Alabama - I can't get started
TTITLE15=Riverboat shuffle
TTITLE16=High society
TTITLE17=Royal garden blues
TTITLE18=Rockin' chair - Body and soul
TTITLE19=When the Saints go marchin' in
EXTD=YEAR: 1962
EXTT0=
EXTT1=
EXTT2=
EXTT3=
EXTT4=
EXTT5=
EXTT6=
EXTT7=
EXTT8=
EXTT9=
EXTT10=
EXTT11=
EXTT12=
EXTT13=
EXTT14=
EXTT15=
EXTT16=
EXTT17=
EXTT18=
EXTT19=
PLAYORDER=
